# xmcd
# 
# Track frame offsets:
#     183
#     11153
#     25138
#     38968
#     52585
#     66583
#     79340
#     94313
#     106573
#     120563
#     134648
#     146680
#     159558
#     173185
#     187908
#     202658
#     216320
#     226768
#     239978
#     252935
#     266323
#     279790
# 
# Disc length: 3908
# 
# Revision: 4
# Processed by: cddbd v1.5.2PL0 Copyright (c) Steve Scherf et al.
# Submitted via: fre:ac v1.0.27
# 
DISCID=320f4216
DTITLE=Billie Holiday - Loveless love
DYEAR=0
DGENRE=Jazz
TTITLE0=Romance In The Dark
TTITLE1=Georgia On My Mind
TTITLE2=Miss Brown To You
TTITLE3=What A Little Moonlight Can Do
TTITLE4=Twenty Four Hours A Day
TTITLE5=Yankee Doodle Never Went To Town
TTITLE6=Loveless Love
TTITLE7=What Is This Going To Get Us
TTITLE8=Night and Day
TTITLE9=More Than You Know
TTITLE10=Hello, My Darling
TTITLE11=Let's Dream In The Moonlight
TTITLE12=Under A Blue Jungle Moon
TTITLE13=If You Were Mine
TTITLE14=This 'n' That 'n' Those
TTITLE15=Let's Call A Heart
TTITLE16=Please Keep Me In Your Dreams
TTITLE17=You're Gonna See A Lot Of Me
TTITLE18=You're So Desirable
TTITLE19=I Wish I Had You
TTITLE20=I'll Never Fail You
TTITLE21=Spreading Rhythm Around
EXTD=
EXTT0=
EXTT1=
EXTT2=
EXTT3=
EXTT4=
EXTT5=
EXTT6=
EXTT7=
EXTT8=
EXTT9=
EXTT10=
EXTT11=
EXTT12=
EXTT13=
EXTT14=
EXTT15=
EXTT16=
EXTT17=
EXTT18=
EXTT19=
EXTT20=
EXTT21=
PLAYORDER=
